<mxfile host="Electron" modified="2023-05-27T18:12:19.745Z" agent="Mozilla/5.0 (Windows NT 10.0; Win64; x64) AppleWebKit/537.36 (KHTML, like Gecko) draw.io/21.2.8 Chrome/112.0.5615.165 Electron/24.2.0 Safari/537.36" etag="uA9T_NJH7NQ2rzDGUl2o" version="21.2.8" type="device">
  <diagram id="fc1f3b67-3c9b-b1b3-7705-706421d27264" name="ERD Habit Tracker app">
    <mxGraphModel dx="1839" dy="582" grid="1" gridSize="10" guides="1" tooltips="1" connect="1" arrows="1" fold="1" page="1" pageScale="1" pageWidth="850" pageHeight="1100" math="0" shadow="0">
      <root>
        <mxCell id="0" />
        <mxCell id="1" parent="0" />
        <mxCell id="j54vr8sCM3AS_-4BOwvj-5" value="Name" style="ellipse;whiteSpace=wrap;html=1;aspect=fixed;fontSize=10;fillColor=#f5f5f5;strokeColor=#666666;fontColor=#333333;" parent="1" vertex="1">
          <mxGeometry x="-830" y="103" width="50" height="50" as="geometry" />
        </mxCell>
        <mxCell id="j54vr8sCM3AS_-4BOwvj-6" value="" style="shape=link;html=1;rounded=0;exitX=0.5;exitY=1;exitDx=0;exitDy=0;" parent="1" target="j54vr8sCM3AS_-4BOwvj-5" edge="1">
          <mxGeometry relative="1" as="geometry">
            <mxPoint x="-805" y="18" as="sourcePoint" />
            <mxPoint x="-630" y="70" as="targetPoint" />
          </mxGeometry>
        </mxCell>
        <mxCell id="j54vr8sCM3AS_-4BOwvj-7" value="User" style="strokeWidth=2;whiteSpace=wrap;html=1;align=center;fontSize=13;fontFamily=Helvetica;fontColor=#000000;strokeColor=#d79b00;fillColor=#ffe6cc;" parent="1" vertex="1">
          <mxGeometry x="-740" y="33" width="70" height="70" as="geometry" />
        </mxCell>
        <mxCell id="j54vr8sCM3AS_-4BOwvj-8" value="Has" style="shape=rhombus;strokeWidth=2;fontSize=13;perimeter=rhombusPerimeter;whiteSpace=wrap;html=1;align=center;fillColor=#d5e8d4;strokeColor=#82b366;" parent="1" vertex="1">
          <mxGeometry x="-610" y="33" width="70" height="70" as="geometry" />
        </mxCell>
        <mxCell id="j54vr8sCM3AS_-4BOwvj-9" value="&lt;i&gt;CoachID&lt;/i&gt;" style="ellipse;whiteSpace=wrap;html=1;aspect=fixed;fontSize=10;fillColor=#dae8fc;strokeColor=#6c8ebf;" parent="1" vertex="1">
          <mxGeometry x="-470" y="43" width="50" height="50" as="geometry" />
        </mxCell>
        <mxCell id="j54vr8sCM3AS_-4BOwvj-12" value="" style="group" parent="1" vertex="1" connectable="0">
          <mxGeometry x="-380" y="30" width="74" height="74" as="geometry" />
        </mxCell>
        <mxCell id="j54vr8sCM3AS_-4BOwvj-13" value="Entity" style="strokeWidth=2;whiteSpace=wrap;html=1;align=center;fontSize=14;fillColor=#d5e8d4;strokeColor=#82b366;" parent="j54vr8sCM3AS_-4BOwvj-12" vertex="1">
          <mxGeometry width="74" height="74" as="geometry" />
        </mxCell>
        <mxCell id="j54vr8sCM3AS_-4BOwvj-14" value="Has" style="shape=rhombus;strokeWidth=2;fontSize=13;perimeter=rhombusPerimeter;whiteSpace=wrap;html=1;align=center;fillColor=#d5e8d4;strokeColor=#82b366;" parent="j54vr8sCM3AS_-4BOwvj-12" vertex="1">
          <mxGeometry x="2" y="2" width="70" height="70" as="geometry" />
        </mxCell>
        <mxCell id="8S6d5TV-LSRBYTjxFOdh-2" style="rounded=0;orthogonalLoop=1;jettySize=auto;html=1;exitX=1;exitY=1;exitDx=0;exitDy=0;entryX=0;entryY=0;entryDx=0;entryDy=0;endArrow=none;endFill=0;" edge="1" parent="1" source="j54vr8sCM3AS_-4BOwvj-15" target="8S6d5TV-LSRBYTjxFOdh-1">
          <mxGeometry relative="1" as="geometry" />
        </mxCell>
        <mxCell id="j54vr8sCM3AS_-4BOwvj-15" value="User" style="strokeWidth=2;whiteSpace=wrap;html=1;align=center;fontSize=13;fontFamily=Helvetica;fontColor=#000000;strokeColor=#d79b00;fillColor=#ffe6cc;" parent="1" vertex="1">
          <mxGeometry x="150" y="260" width="70" height="70" as="geometry" />
        </mxCell>
        <mxCell id="j54vr8sCM3AS_-4BOwvj-18" style="rounded=0;orthogonalLoop=1;jettySize=auto;html=1;endArrow=none;endFill=0;entryX=0.5;entryY=0;entryDx=0;entryDy=0;" parent="1" source="j54vr8sCM3AS_-4BOwvj-17" target="j54vr8sCM3AS_-4BOwvj-15" edge="1">
          <mxGeometry relative="1" as="geometry" />
        </mxCell>
        <mxCell id="j54vr8sCM3AS_-4BOwvj-17" value="&lt;u&gt;User_Id&lt;/u&gt;" style="ellipse;whiteSpace=wrap;html=1;aspect=fixed;fontSize=10;fillColor=#dae8fc;strokeColor=#6c8ebf;" parent="1" vertex="1">
          <mxGeometry x="70" y="170" width="50" height="50" as="geometry" />
        </mxCell>
        <mxCell id="j54vr8sCM3AS_-4BOwvj-29" style="rounded=0;orthogonalLoop=1;jettySize=auto;html=1;endArrow=none;endFill=0;entryX=0.5;entryY=0;entryDx=0;entryDy=0;" parent="1" source="j54vr8sCM3AS_-4BOwvj-20" target="j54vr8sCM3AS_-4BOwvj-15" edge="1">
          <mxGeometry relative="1" as="geometry">
            <mxPoint x="190" y="250" as="targetPoint" />
          </mxGeometry>
        </mxCell>
        <mxCell id="j54vr8sCM3AS_-4BOwvj-20" value="Phone Number" style="ellipse;whiteSpace=wrap;html=1;aspect=fixed;fontSize=10;fillColor=#dae8fc;strokeColor=#6c8ebf;" parent="1" vertex="1">
          <mxGeometry x="250" y="170" width="50" height="50" as="geometry" />
        </mxCell>
        <mxCell id="j54vr8sCM3AS_-4BOwvj-26" style="rounded=0;orthogonalLoop=1;jettySize=auto;html=1;endArrow=none;endFill=0;" parent="1" source="j54vr8sCM3AS_-4BOwvj-22" target="j54vr8sCM3AS_-4BOwvj-15" edge="1">
          <mxGeometry relative="1" as="geometry" />
        </mxCell>
        <mxCell id="j54vr8sCM3AS_-4BOwvj-22" value="Name" style="ellipse;whiteSpace=wrap;html=1;aspect=fixed;fontSize=10;fillColor=#dae8fc;strokeColor=#6c8ebf;" parent="1" vertex="1">
          <mxGeometry x="160" y="153" width="50" height="50" as="geometry" />
        </mxCell>
        <mxCell id="j54vr8sCM3AS_-4BOwvj-27" style="rounded=0;orthogonalLoop=1;jettySize=auto;html=1;endArrow=none;endFill=0;" parent="1" source="j54vr8sCM3AS_-4BOwvj-24" target="j54vr8sCM3AS_-4BOwvj-22" edge="1">
          <mxGeometry relative="1" as="geometry" />
        </mxCell>
        <mxCell id="j54vr8sCM3AS_-4BOwvj-24" value="Last&lt;br&gt;name" style="ellipse;whiteSpace=wrap;html=1;aspect=fixed;fontSize=10;fillColor=#dae8fc;strokeColor=#6c8ebf;" parent="1" vertex="1">
          <mxGeometry x="240" y="93" width="50" height="50" as="geometry" />
        </mxCell>
        <mxCell id="j54vr8sCM3AS_-4BOwvj-28" style="rounded=0;orthogonalLoop=1;jettySize=auto;html=1;endArrow=none;endFill=0;" parent="1" source="j54vr8sCM3AS_-4BOwvj-25" target="j54vr8sCM3AS_-4BOwvj-22" edge="1">
          <mxGeometry relative="1" as="geometry" />
        </mxCell>
        <mxCell id="j54vr8sCM3AS_-4BOwvj-25" value="First &lt;br&gt;name" style="ellipse;whiteSpace=wrap;html=1;aspect=fixed;fontSize=10;fillColor=#dae8fc;strokeColor=#6c8ebf;" parent="1" vertex="1">
          <mxGeometry x="90" y="93" width="50" height="50" as="geometry" />
        </mxCell>
        <mxCell id="j54vr8sCM3AS_-4BOwvj-30" style="rounded=0;orthogonalLoop=1;jettySize=auto;html=1;endArrow=none;endFill=0;entryX=1;entryY=0.5;entryDx=0;entryDy=0;" parent="1" source="j54vr8sCM3AS_-4BOwvj-31" target="j54vr8sCM3AS_-4BOwvj-15" edge="1">
          <mxGeometry relative="1" as="geometry">
            <mxPoint x="227" y="270" as="targetPoint" />
          </mxGeometry>
        </mxCell>
        <mxCell id="j54vr8sCM3AS_-4BOwvj-31" value="Email" style="ellipse;whiteSpace=wrap;html=1;aspect=fixed;fontSize=10;fillColor=#dae8fc;strokeColor=#6c8ebf;" parent="1" vertex="1">
          <mxGeometry x="280" y="240" width="50" height="50" as="geometry" />
        </mxCell>
        <mxCell id="j54vr8sCM3AS_-4BOwvj-33" style="edgeStyle=orthogonalEdgeStyle;rounded=0;orthogonalLoop=1;jettySize=auto;html=1;endArrow=none;endFill=0;shape=link;" parent="1" source="j54vr8sCM3AS_-4BOwvj-32" target="j54vr8sCM3AS_-4BOwvj-15" edge="1">
          <mxGeometry relative="1" as="geometry" />
        </mxCell>
        <mxCell id="j54vr8sCM3AS_-4BOwvj-41" style="edgeStyle=orthogonalEdgeStyle;rounded=0;orthogonalLoop=1;jettySize=auto;html=1;entryX=0.5;entryY=0;entryDx=0;entryDy=0;endArrow=none;endFill=0;" parent="1" source="j54vr8sCM3AS_-4BOwvj-32" target="j54vr8sCM3AS_-4BOwvj-36" edge="1">
          <mxGeometry relative="1" as="geometry" />
        </mxCell>
        <mxCell id="j54vr8sCM3AS_-4BOwvj-42" style="edgeStyle=orthogonalEdgeStyle;rounded=0;orthogonalLoop=1;jettySize=auto;html=1;entryX=0.5;entryY=0;entryDx=0;entryDy=0;endArrow=none;endFill=0;" parent="1" source="j54vr8sCM3AS_-4BOwvj-32" target="j54vr8sCM3AS_-4BOwvj-35" edge="1">
          <mxGeometry relative="1" as="geometry" />
        </mxCell>
        <mxCell id="j54vr8sCM3AS_-4BOwvj-32" value="&lt;font style=&quot;font-size: 13px;&quot;&gt;d&lt;/font&gt;" style="ellipse;whiteSpace=wrap;html=1;aspect=fixed;fontSize=10;fillColor=#f5f5f5;strokeColor=#666666;fontColor=#333333;" parent="1" vertex="1">
          <mxGeometry x="170" y="390" width="30" height="30" as="geometry" />
        </mxCell>
        <mxCell id="-wELDlrGeIdnjE-AUqKl-13" style="edgeStyle=orthogonalEdgeStyle;rounded=0;orthogonalLoop=1;jettySize=auto;html=1;entryX=0.5;entryY=1;entryDx=0;entryDy=0;endArrow=none;endFill=0;" parent="1" source="j54vr8sCM3AS_-4BOwvj-34" target="-wELDlrGeIdnjE-AUqKl-12" edge="1">
          <mxGeometry relative="1" as="geometry" />
        </mxCell>
        <mxCell id="j54vr8sCM3AS_-4BOwvj-34" value="Hospital" style="strokeWidth=2;whiteSpace=wrap;html=1;align=center;fontSize=13;fontFamily=Helvetica;fontColor=#000000;strokeColor=#d79b00;fillColor=#ffe6cc;" parent="1" vertex="1">
          <mxGeometry x="-185" y="260" width="70" height="70" as="geometry" />
        </mxCell>
        <mxCell id="j54vr8sCM3AS_-4BOwvj-123" style="edgeStyle=orthogonalEdgeStyle;rounded=0;orthogonalLoop=1;jettySize=auto;html=1;entryX=0.5;entryY=0;entryDx=0;entryDy=0;endArrow=none;endFill=0;startArrow=ERmandOne;startFill=0;" parent="1" source="j54vr8sCM3AS_-4BOwvj-35" target="j54vr8sCM3AS_-4BOwvj-119" edge="1">
          <mxGeometry relative="1" as="geometry" />
        </mxCell>
        <mxCell id="j54vr8sCM3AS_-4BOwvj-141" style="edgeStyle=orthogonalEdgeStyle;rounded=0;orthogonalLoop=1;jettySize=auto;html=1;exitX=0.25;exitY=0;exitDx=0;exitDy=0;entryX=1;entryY=0.5;entryDx=0;entryDy=0;endArrow=none;endFill=0;startArrow=ERzeroToMany;startFill=0;jumpSize=20;jumpStyle=arc;" parent="1" source="j54vr8sCM3AS_-4BOwvj-35" target="j54vr8sCM3AS_-4BOwvj-129" edge="1">
          <mxGeometry relative="1" as="geometry">
            <mxPoint x="-240" y="505" as="targetPoint" />
            <Array as="points">
              <mxPoint x="448" y="495" />
            </Array>
          </mxGeometry>
        </mxCell>
        <mxCell id="EyjTof-p0_s5qoq8Op2--2" style="rounded=0;orthogonalLoop=1;jettySize=auto;html=1;exitX=1;exitY=0.5;exitDx=0;exitDy=0;entryX=0;entryY=0.5;entryDx=0;entryDy=0;endArrow=none;endFill=0;" parent="1" source="j54vr8sCM3AS_-4BOwvj-35" target="EyjTof-p0_s5qoq8Op2--1" edge="1">
          <mxGeometry relative="1" as="geometry" />
        </mxCell>
        <mxCell id="j54vr8sCM3AS_-4BOwvj-35" value="Doctor" style="strokeWidth=2;whiteSpace=wrap;html=1;align=center;fontSize=13;fontFamily=Helvetica;fontColor=#000000;strokeColor=#d79b00;fillColor=#ffe6cc;" parent="1" vertex="1">
          <mxGeometry x="430" y="550" width="70" height="70" as="geometry" />
        </mxCell>
        <mxCell id="j54vr8sCM3AS_-4BOwvj-76" style="edgeStyle=orthogonalEdgeStyle;rounded=0;orthogonalLoop=1;jettySize=auto;html=1;entryX=0.5;entryY=0;entryDx=0;entryDy=0;startArrow=ERmandOne;startFill=0;endArrow=none;endFill=0;jumpSize=9;exitX=0;exitY=0.25;exitDx=0;exitDy=0;" parent="1" source="j54vr8sCM3AS_-4BOwvj-36" target="j54vr8sCM3AS_-4BOwvj-62" edge="1">
          <mxGeometry relative="1" as="geometry" />
        </mxCell>
        <mxCell id="j54vr8sCM3AS_-4BOwvj-36" value="Patient" style="strokeWidth=2;whiteSpace=wrap;html=1;align=center;fontSize=13;fontFamily=Helvetica;fontColor=#000000;strokeColor=#d79b00;fillColor=#ffe6cc;" parent="1" vertex="1">
          <mxGeometry x="150" y="550" width="70" height="70" as="geometry" />
        </mxCell>
        <mxCell id="GgUCLowPB-rWNKc8fll5-7" style="rounded=0;orthogonalLoop=1;jettySize=auto;html=1;entryX=1;entryY=0.5;entryDx=0;entryDy=0;endArrow=none;endFill=0;" parent="1" target="j54vr8sCM3AS_-4BOwvj-34" edge="1">
          <mxGeometry relative="1" as="geometry">
            <mxPoint x="-77.4314371184139" y="313.9623087195107" as="sourcePoint" />
          </mxGeometry>
        </mxCell>
        <mxCell id="GgUCLowPB-rWNKc8fll5-8" style="rounded=0;orthogonalLoop=1;jettySize=auto;html=1;entryX=1;entryY=0.5;entryDx=0;entryDy=0;endArrow=none;endFill=0;exitX=0.1;exitY=0.6;exitDx=0;exitDy=0;exitPerimeter=0;" parent="1" source="kqjBh0B1r9YaiWJz7lT--20" target="j54vr8sCM3AS_-4BOwvj-34" edge="1">
          <mxGeometry relative="1" as="geometry">
            <mxPoint x="-81.04729426373387" y="274.88416815070514" as="sourcePoint" />
          </mxGeometry>
        </mxCell>
        <mxCell id="j54vr8sCM3AS_-4BOwvj-53" style="rounded=0;orthogonalLoop=1;jettySize=auto;html=1;entryX=0.5;entryY=1;entryDx=0;entryDy=0;endArrow=none;endFill=0;" parent="1" source="j54vr8sCM3AS_-4BOwvj-49" target="j54vr8sCM3AS_-4BOwvj-36" edge="1">
          <mxGeometry relative="1" as="geometry" />
        </mxCell>
        <mxCell id="j54vr8sCM3AS_-4BOwvj-49" value="Birthdate" style="ellipse;whiteSpace=wrap;html=1;aspect=fixed;fontSize=10;fillColor=#dae8fc;strokeColor=#6c8ebf;" parent="1" vertex="1">
          <mxGeometry x="157.5" y="655" width="55" height="55" as="geometry" />
        </mxCell>
        <mxCell id="j54vr8sCM3AS_-4BOwvj-68" style="edgeStyle=orthogonalEdgeStyle;rounded=0;orthogonalLoop=1;jettySize=auto;html=1;entryX=0.5;entryY=0;entryDx=0;entryDy=0;startArrow=none;startFill=0;endArrow=ERzeroToOne;endFill=0;" parent="1" source="j54vr8sCM3AS_-4BOwvj-62" target="j54vr8sCM3AS_-4BOwvj-63" edge="1">
          <mxGeometry relative="1" as="geometry" />
        </mxCell>
        <mxCell id="j54vr8sCM3AS_-4BOwvj-62" value="Has" style="shape=rhombus;strokeWidth=2;fontSize=13;perimeter=rhombusPerimeter;whiteSpace=wrap;html=1;align=center;fillColor=#d5e8d4;strokeColor=#82b366;" parent="1" vertex="1">
          <mxGeometry x="-60" y="680" width="70" height="70" as="geometry" />
        </mxCell>
        <mxCell id="j54vr8sCM3AS_-4BOwvj-63" value="Medical Record" style="strokeWidth=2;whiteSpace=wrap;html=1;align=center;fontSize=13;fontFamily=Helvetica;fontColor=#000000;strokeColor=#d79b00;fillColor=#ffe6cc;" parent="1" vertex="1">
          <mxGeometry x="-60" y="950" width="70" height="70" as="geometry" />
        </mxCell>
        <mxCell id="j54vr8sCM3AS_-4BOwvj-81" style="rounded=0;orthogonalLoop=1;jettySize=auto;html=1;endArrow=none;endFill=0;" parent="1" source="j54vr8sCM3AS_-4BOwvj-78" target="j54vr8sCM3AS_-4BOwvj-63" edge="1">
          <mxGeometry relative="1" as="geometry" />
        </mxCell>
        <mxCell id="j54vr8sCM3AS_-4BOwvj-78" value="&lt;u&gt;Record_id&lt;/u&gt;" style="ellipse;whiteSpace=wrap;html=1;aspect=fixed;fontSize=10;fillColor=#dae8fc;strokeColor=#6c8ebf;" parent="1" vertex="1">
          <mxGeometry x="-175" y="990" width="60" height="60" as="geometry" />
        </mxCell>
        <mxCell id="j54vr8sCM3AS_-4BOwvj-86" style="edgeStyle=orthogonalEdgeStyle;rounded=0;orthogonalLoop=1;jettySize=auto;html=1;entryX=0.5;entryY=1;entryDx=0;entryDy=0;endArrow=ERzeroToOne;endFill=0;" parent="1" source="j54vr8sCM3AS_-4BOwvj-84" target="j54vr8sCM3AS_-4BOwvj-35" edge="1">
          <mxGeometry relative="1" as="geometry" />
        </mxCell>
        <mxCell id="j54vr8sCM3AS_-4BOwvj-127" style="edgeStyle=orthogonalEdgeStyle;rounded=0;orthogonalLoop=1;jettySize=auto;html=1;entryX=1;entryY=0.5;entryDx=0;entryDy=0;endArrow=ERzeroToMany;endFill=0;" parent="1" source="j54vr8sCM3AS_-4BOwvj-84" target="j54vr8sCM3AS_-4BOwvj-94" edge="1">
          <mxGeometry relative="1" as="geometry">
            <mxPoint x="465" y="1020" as="targetPoint" />
            <Array as="points">
              <mxPoint x="465" y="995" />
            </Array>
          </mxGeometry>
        </mxCell>
        <mxCell id="j54vr8sCM3AS_-4BOwvj-84" value="Mange/&lt;br&gt;View" style="shape=rhombus;strokeWidth=2;fontSize=13;perimeter=rhombusPerimeter;whiteSpace=wrap;html=1;align=center;fillColor=#d5e8d4;strokeColor=#82b366;" parent="1" vertex="1">
          <mxGeometry x="430" y="680" width="70" height="70" as="geometry" />
        </mxCell>
        <mxCell id="j54vr8sCM3AS_-4BOwvj-90" style="edgeStyle=orthogonalEdgeStyle;rounded=0;orthogonalLoop=1;jettySize=auto;html=1;entryX=0;entryY=0.714;entryDx=0;entryDy=0;entryPerimeter=0;endArrow=ERmandOne;endFill=0;exitX=0;exitY=0.5;exitDx=0;exitDy=0;" parent="1" source="j54vr8sCM3AS_-4BOwvj-88" target="j54vr8sCM3AS_-4BOwvj-36" edge="1">
          <mxGeometry relative="1" as="geometry">
            <mxPoint x="40" y="600" as="targetPoint" />
            <Array as="points">
              <mxPoint x="50" y="795" />
              <mxPoint x="50" y="600" />
            </Array>
          </mxGeometry>
        </mxCell>
        <mxCell id="j54vr8sCM3AS_-4BOwvj-88" value="Book" style="shape=rhombus;strokeWidth=2;fontSize=13;perimeter=rhombusPerimeter;whiteSpace=wrap;html=1;align=center;fillColor=#d5e8d4;strokeColor=#82b366;" parent="1" vertex="1">
          <mxGeometry x="90" y="760" width="70" height="70" as="geometry" />
        </mxCell>
        <mxCell id="j54vr8sCM3AS_-4BOwvj-94" value="Appoinment" style="strokeWidth=2;whiteSpace=wrap;html=1;align=center;fontSize=13;fontFamily=Helvetica;fontColor=#000000;strokeColor=#d79b00;fillColor=#ffe6cc;" parent="1" vertex="1">
          <mxGeometry x="220" y="960" width="90" height="70" as="geometry" />
        </mxCell>
        <mxCell id="j54vr8sCM3AS_-4BOwvj-105" style="rounded=0;orthogonalLoop=1;jettySize=auto;html=1;entryX=0.5;entryY=1;entryDx=0;entryDy=0;endArrow=none;endFill=0;" parent="1" source="j54vr8sCM3AS_-4BOwvj-95" target="j54vr8sCM3AS_-4BOwvj-94" edge="1">
          <mxGeometry relative="1" as="geometry" />
        </mxCell>
        <mxCell id="j54vr8sCM3AS_-4BOwvj-95" value="Status" style="ellipse;whiteSpace=wrap;html=1;aspect=fixed;fontSize=10;fillColor=#dae8fc;strokeColor=#6c8ebf;" parent="1" vertex="1">
          <mxGeometry x="140" y="1070" width="60" height="60" as="geometry" />
        </mxCell>
        <mxCell id="j54vr8sCM3AS_-4BOwvj-104" style="rounded=0;orthogonalLoop=1;jettySize=auto;html=1;endArrow=none;endFill=0;entryX=0.5;entryY=1;entryDx=0;entryDy=0;" parent="1" source="j54vr8sCM3AS_-4BOwvj-99" target="j54vr8sCM3AS_-4BOwvj-94" edge="1">
          <mxGeometry relative="1" as="geometry" />
        </mxCell>
        <mxCell id="j54vr8sCM3AS_-4BOwvj-99" value="time" style="ellipse;whiteSpace=wrap;html=1;aspect=fixed;fontSize=10;fillColor=#dae8fc;strokeColor=#6c8ebf;" parent="1" vertex="1">
          <mxGeometry x="212.5" y="1070" width="60" height="60" as="geometry" />
        </mxCell>
        <mxCell id="j54vr8sCM3AS_-4BOwvj-103" style="rounded=0;orthogonalLoop=1;jettySize=auto;html=1;entryX=0.5;entryY=1;entryDx=0;entryDy=0;endArrow=none;endFill=0;" parent="1" source="j54vr8sCM3AS_-4BOwvj-100" target="j54vr8sCM3AS_-4BOwvj-94" edge="1">
          <mxGeometry relative="1" as="geometry" />
        </mxCell>
        <mxCell id="j54vr8sCM3AS_-4BOwvj-100" value="&lt;u&gt;Appointment&lt;br&gt;id&lt;/u&gt;" style="ellipse;whiteSpace=wrap;html=1;aspect=fixed;fontSize=10;fillColor=#dae8fc;strokeColor=#6c8ebf;" parent="1" vertex="1">
          <mxGeometry x="290" y="1070" width="60" height="60" as="geometry" />
        </mxCell>
        <mxCell id="j54vr8sCM3AS_-4BOwvj-106" value="Dialysis Machine" style="strokeWidth=2;whiteSpace=wrap;html=1;align=center;fontSize=13;fontFamily=Helvetica;fontColor=#000000;strokeColor=#d79b00;fillColor=#ffe6cc;" parent="1" vertex="1">
          <mxGeometry x="-475" y="950" width="140" height="70" as="geometry" />
        </mxCell>
        <mxCell id="j54vr8sCM3AS_-4BOwvj-108" style="edgeStyle=orthogonalEdgeStyle;rounded=0;orthogonalLoop=1;jettySize=auto;html=1;endArrow=ERoneToMany;endFill=0;elbow=vertical;entryX=0.177;entryY=1.005;entryDx=0;entryDy=0;exitX=0.5;exitY=0;exitDx=0;exitDy=0;entryPerimeter=0;" parent="1" source="j54vr8sCM3AS_-4BOwvj-107" target="j54vr8sCM3AS_-4BOwvj-34" edge="1">
          <mxGeometry relative="1" as="geometry">
            <Array as="points">
              <mxPoint x="-405" y="410" />
              <mxPoint x="-173" y="410" />
            </Array>
            <mxPoint x="-220" y="295" as="targetPoint" />
            <mxPoint x="-410" y="570" as="sourcePoint" />
          </mxGeometry>
        </mxCell>
        <mxCell id="j54vr8sCM3AS_-4BOwvj-109" style="edgeStyle=orthogonalEdgeStyle;rounded=0;orthogonalLoop=1;jettySize=auto;html=1;endArrow=ERzeroToMany;endFill=0;" parent="1" source="j54vr8sCM3AS_-4BOwvj-107" target="j54vr8sCM3AS_-4BOwvj-106" edge="1">
          <mxGeometry relative="1" as="geometry" />
        </mxCell>
        <mxCell id="j54vr8sCM3AS_-4BOwvj-107" value="Owns" style="shape=rhombus;strokeWidth=2;fontSize=13;perimeter=rhombusPerimeter;whiteSpace=wrap;html=1;align=center;fillColor=#d5e8d4;strokeColor=#82b366;" parent="1" vertex="1">
          <mxGeometry x="-440" y="680" width="70" height="70" as="geometry" />
        </mxCell>
        <mxCell id="j54vr8sCM3AS_-4BOwvj-115" style="rounded=0;orthogonalLoop=1;jettySize=auto;html=1;entryX=0.5;entryY=1;entryDx=0;entryDy=0;endArrow=none;endFill=0;" parent="1" source="j54vr8sCM3AS_-4BOwvj-110" target="j54vr8sCM3AS_-4BOwvj-106" edge="1">
          <mxGeometry relative="1" as="geometry" />
        </mxCell>
        <mxCell id="j54vr8sCM3AS_-4BOwvj-110" value="Price" style="ellipse;whiteSpace=wrap;html=1;aspect=fixed;fontSize=10;fillColor=#dae8fc;strokeColor=#6c8ebf;" parent="1" vertex="1">
          <mxGeometry x="-410" y="1070" width="60" height="60" as="geometry" />
        </mxCell>
        <mxCell id="j54vr8sCM3AS_-4BOwvj-116" style="rounded=0;orthogonalLoop=1;jettySize=auto;html=1;entryX=0.5;entryY=1;entryDx=0;entryDy=0;endArrow=none;endFill=0;" parent="1" source="j54vr8sCM3AS_-4BOwvj-111" target="j54vr8sCM3AS_-4BOwvj-106" edge="1">
          <mxGeometry relative="1" as="geometry" />
        </mxCell>
        <mxCell id="j54vr8sCM3AS_-4BOwvj-111" value="Availability" style="ellipse;whiteSpace=wrap;html=1;aspect=fixed;fontSize=10;fillColor=#dae8fc;strokeColor=#6c8ebf;" parent="1" vertex="1">
          <mxGeometry x="-335" y="1070" width="60" height="60" as="geometry" />
        </mxCell>
        <mxCell id="j54vr8sCM3AS_-4BOwvj-117" style="rounded=0;orthogonalLoop=1;jettySize=auto;html=1;entryX=0.5;entryY=1;entryDx=0;entryDy=0;endArrow=none;endFill=0;" parent="1" source="j54vr8sCM3AS_-4BOwvj-113" target="j54vr8sCM3AS_-4BOwvj-106" edge="1">
          <mxGeometry relative="1" as="geometry" />
        </mxCell>
        <mxCell id="j54vr8sCM3AS_-4BOwvj-113" value="&lt;u&gt;Dialysis&lt;br&gt;Machine id&lt;/u&gt;" style="ellipse;whiteSpace=wrap;html=1;aspect=fixed;fontSize=10;fillColor=#dae8fc;strokeColor=#6c8ebf;" parent="1" vertex="1">
          <mxGeometry x="-250" y="1070" width="60" height="60" as="geometry" />
        </mxCell>
        <mxCell id="j54vr8sCM3AS_-4BOwvj-125" style="edgeStyle=orthogonalEdgeStyle;rounded=0;orthogonalLoop=1;jettySize=auto;html=1;jumpStyle=arc;jumpSize=20;endArrow=ERzeroToMany;endFill=0;" parent="1" source="j54vr8sCM3AS_-4BOwvj-119" target="j54vr8sCM3AS_-4BOwvj-63" edge="1">
          <mxGeometry relative="1" as="geometry">
            <Array as="points">
              <mxPoint x="355" y="900" />
              <mxPoint x="140" y="900" />
              <mxPoint x="140" y="960" />
            </Array>
          </mxGeometry>
        </mxCell>
        <mxCell id="j54vr8sCM3AS_-4BOwvj-119" value="Edit" style="shape=rhombus;strokeWidth=2;fontSize=13;perimeter=rhombusPerimeter;whiteSpace=wrap;html=1;align=center;fillColor=#d5e8d4;strokeColor=#82b366;" parent="1" vertex="1">
          <mxGeometry x="320" y="680" width="70" height="70" as="geometry" />
        </mxCell>
        <mxCell id="GgUCLowPB-rWNKc8fll5-6" style="edgeStyle=orthogonalEdgeStyle;rounded=0;orthogonalLoop=1;jettySize=auto;html=1;endArrow=ERmandOne;endFill=0;" parent="1" source="j54vr8sCM3AS_-4BOwvj-129" edge="1">
          <mxGeometry relative="1" as="geometry">
            <mxPoint x="-125" y="330" as="targetPoint" />
          </mxGeometry>
        </mxCell>
        <mxCell id="j54vr8sCM3AS_-4BOwvj-129" value="Works" style="shape=rhombus;strokeWidth=2;fontSize=13;perimeter=rhombusPerimeter;whiteSpace=wrap;html=1;align=center;fillColor=#d5e8d4;strokeColor=#82b366;" parent="1" vertex="1">
          <mxGeometry x="-160" y="460" width="70" height="70" as="geometry" />
        </mxCell>
        <mxCell id="GgUCLowPB-rWNKc8fll5-11" style="rounded=0;orthogonalLoop=1;jettySize=auto;html=1;entryX=0.5;entryY=0;entryDx=0;entryDy=0;endArrow=none;endFill=0;" parent="1" source="GgUCLowPB-rWNKc8fll5-9" target="j54vr8sCM3AS_-4BOwvj-34" edge="1">
          <mxGeometry relative="1" as="geometry" />
        </mxCell>
        <mxCell id="GgUCLowPB-rWNKc8fll5-9" value="Phone Number" style="ellipse;whiteSpace=wrap;html=1;aspect=fixed;fontSize=10;fillColor=#dae8fc;strokeColor=#6c8ebf;" parent="1" vertex="1">
          <mxGeometry x="-80" y="170" width="50" height="50" as="geometry" />
        </mxCell>
        <mxCell id="GgUCLowPB-rWNKc8fll5-12" style="rounded=0;orthogonalLoop=1;jettySize=auto;html=1;entryX=0.5;entryY=0;entryDx=0;entryDy=0;endArrow=none;endFill=0;" parent="1" source="GgUCLowPB-rWNKc8fll5-10" target="j54vr8sCM3AS_-4BOwvj-34" edge="1">
          <mxGeometry relative="1" as="geometry" />
        </mxCell>
        <mxCell id="GgUCLowPB-rWNKc8fll5-10" value="Email" style="ellipse;whiteSpace=wrap;html=1;aspect=fixed;fontSize=10;fillColor=#dae8fc;strokeColor=#6c8ebf;" parent="1" vertex="1">
          <mxGeometry x="-110" y="120" width="50" height="50" as="geometry" />
        </mxCell>
        <mxCell id="oXZRPyXRySQb0t9vhp2k-3" style="edgeStyle=orthogonalEdgeStyle;rounded=0;orthogonalLoop=1;jettySize=auto;html=1;exitX=0.5;exitY=1;exitDx=0;exitDy=0;entryX=0;entryY=0.5;entryDx=0;entryDy=0;endArrow=ERzeroToMany;endFill=0;" parent="1" source="oXZRPyXRySQb0t9vhp2k-1" target="j54vr8sCM3AS_-4BOwvj-94" edge="1">
          <mxGeometry relative="1" as="geometry">
            <Array as="points">
              <mxPoint x="-225" y="1060" />
              <mxPoint x="190" y="1060" />
              <mxPoint x="190" y="995" />
            </Array>
          </mxGeometry>
        </mxCell>
        <mxCell id="kqjBh0B1r9YaiWJz7lT--18" style="edgeStyle=orthogonalEdgeStyle;rounded=0;orthogonalLoop=1;jettySize=auto;html=1;exitX=0.5;exitY=0;exitDx=0;exitDy=0;entryX=0.5;entryY=1;entryDx=0;entryDy=0;endArrow=ERmandOne;endFill=0;" parent="1" source="oXZRPyXRySQb0t9vhp2k-1" target="j54vr8sCM3AS_-4BOwvj-34" edge="1">
          <mxGeometry relative="1" as="geometry">
            <Array as="points">
              <mxPoint x="-225" y="440" />
              <mxPoint x="-150" y="440" />
            </Array>
          </mxGeometry>
        </mxCell>
        <mxCell id="oXZRPyXRySQb0t9vhp2k-1" value="Mange/&lt;br style=&quot;border-color: var(--border-color);&quot;&gt;View" style="shape=rhombus;strokeWidth=2;fontSize=13;perimeter=rhombusPerimeter;whiteSpace=wrap;html=1;align=center;fillColor=#d5e8d4;strokeColor=#82b366;" parent="1" vertex="1">
          <mxGeometry x="-260" y="680" width="70" height="70" as="geometry" />
        </mxCell>
        <mxCell id="oXZRPyXRySQb0t9vhp2k-5" style="edgeStyle=orthogonalEdgeStyle;rounded=0;orthogonalLoop=1;jettySize=auto;html=1;entryX=1;entryY=0.75;entryDx=0;entryDy=0;endArrow=ERmandOne;endFill=0;" parent="1" source="oXZRPyXRySQb0t9vhp2k-4" target="j54vr8sCM3AS_-4BOwvj-63" edge="1">
          <mxGeometry relative="1" as="geometry" />
        </mxCell>
        <mxCell id="oXZRPyXRySQb0t9vhp2k-6" style="edgeStyle=orthogonalEdgeStyle;rounded=0;orthogonalLoop=1;jettySize=auto;html=1;entryX=0;entryY=0.25;entryDx=0;entryDy=0;jumpStyle=none;jumpSize=17;endArrow=ERmandOne;endFill=0;" parent="1" source="oXZRPyXRySQb0t9vhp2k-4" target="j54vr8sCM3AS_-4BOwvj-94" edge="1">
          <mxGeometry relative="1" as="geometry" />
        </mxCell>
        <mxCell id="oXZRPyXRySQb0t9vhp2k-4" value="linked" style="shape=rhombus;strokeWidth=2;fontSize=13;perimeter=rhombusPerimeter;whiteSpace=wrap;html=1;align=center;fillColor=#d5e8d4;strokeColor=#82b366;" parent="1" vertex="1">
          <mxGeometry x="50" y="980" width="70" height="70" as="geometry" />
        </mxCell>
        <mxCell id="kqjBh0B1r9YaiWJz7lT--10" style="edgeStyle=orthogonalEdgeStyle;rounded=0;orthogonalLoop=1;jettySize=auto;html=1;entryX=0.893;entryY=0;entryDx=0;entryDy=0;entryPerimeter=0;endArrow=ERmandOne;endFill=0;" parent="1" source="M6CIClV-1CO_GCqlJLZ7-1" target="j54vr8sCM3AS_-4BOwvj-106" edge="1">
          <mxGeometry relative="1" as="geometry" />
        </mxCell>
        <mxCell id="kqjBh0B1r9YaiWJz7lT--11" style="edgeStyle=orthogonalEdgeStyle;rounded=0;orthogonalLoop=1;jettySize=auto;html=1;entryX=0.452;entryY=-0.01;entryDx=0;entryDy=0;entryPerimeter=0;endArrow=ERzeroToOne;endFill=0;jumpStyle=arc;jumpSize=20;" parent="1" source="M6CIClV-1CO_GCqlJLZ7-1" target="j54vr8sCM3AS_-4BOwvj-94" edge="1">
          <mxGeometry relative="1" as="geometry" />
        </mxCell>
        <mxCell id="M6CIClV-1CO_GCqlJLZ7-1" value="using" style="shape=rhombus;strokeWidth=2;fontSize=13;perimeter=rhombusPerimeter;whiteSpace=wrap;html=1;align=center;fillColor=#d5e8d4;strokeColor=#82b366;" parent="1" vertex="1">
          <mxGeometry x="-385" y="820" width="70" height="70" as="geometry" />
        </mxCell>
        <mxCell id="NIKDauTSCPBSn45b-ndQ-4" style="rounded=0;orthogonalLoop=1;jettySize=auto;html=1;endArrow=none;endFill=0;entryX=1;entryY=0.5;entryDx=0;entryDy=0;" parent="1" source="NIKDauTSCPBSn45b-ndQ-3" target="j54vr8sCM3AS_-4BOwvj-15" edge="1">
          <mxGeometry relative="1" as="geometry" />
        </mxCell>
        <mxCell id="NIKDauTSCPBSn45b-ndQ-3" value="Gender" style="ellipse;whiteSpace=wrap;html=1;aspect=fixed;fontSize=10;fillColor=#dae8fc;strokeColor=#6c8ebf;" parent="1" vertex="1">
          <mxGeometry x="280" y="300" width="50" height="50" as="geometry" />
        </mxCell>
        <mxCell id="NIKDauTSCPBSn45b-ndQ-6" style="rounded=0;orthogonalLoop=1;jettySize=auto;html=1;endArrow=none;endFill=0;entryX=0;entryY=0.5;entryDx=0;entryDy=0;" parent="1" source="NIKDauTSCPBSn45b-ndQ-5" target="j54vr8sCM3AS_-4BOwvj-15" edge="1">
          <mxGeometry relative="1" as="geometry" />
        </mxCell>
        <mxCell id="NIKDauTSCPBSn45b-ndQ-5" value="Password" style="ellipse;whiteSpace=wrap;html=1;aspect=fixed;fontSize=10;fillColor=#dae8fc;strokeColor=#6c8ebf;" parent="1" vertex="1">
          <mxGeometry x="40" y="240" width="50" height="50" as="geometry" />
        </mxCell>
        <mxCell id="NIKDauTSCPBSn45b-ndQ-8" style="rounded=0;orthogonalLoop=1;jettySize=auto;html=1;entryX=0;entryY=0.5;entryDx=0;entryDy=0;endArrow=none;endFill=0;" parent="1" source="NIKDauTSCPBSn45b-ndQ-7" target="j54vr8sCM3AS_-4BOwvj-15" edge="1">
          <mxGeometry relative="1" as="geometry" />
        </mxCell>
        <mxCell id="NIKDauTSCPBSn45b-ndQ-7" value="UserName" style="ellipse;whiteSpace=wrap;html=1;aspect=fixed;fontSize=10;fillColor=#dae8fc;strokeColor=#6c8ebf;" parent="1" vertex="1">
          <mxGeometry x="40" y="300" width="50" height="50" as="geometry" />
        </mxCell>
        <mxCell id="kqjBh0B1r9YaiWJz7lT--2" style="rounded=0;orthogonalLoop=1;jettySize=auto;html=1;endArrow=none;endFill=0;" parent="1" source="w7iaAHiQ_iuCOMKY4hOQ-1" edge="1">
          <mxGeometry relative="1" as="geometry">
            <mxPoint x="-150" y="260" as="targetPoint" />
          </mxGeometry>
        </mxCell>
        <mxCell id="w7iaAHiQ_iuCOMKY4hOQ-1" value="&lt;span&gt;area&lt;/span&gt;" style="ellipse;whiteSpace=wrap;html=1;aspect=fixed;fontSize=10;fillColor=#dae8fc;strokeColor=#6c8ebf;fontStyle=0" parent="1" vertex="1">
          <mxGeometry x="-270" y="170" width="50" height="50" as="geometry" />
        </mxCell>
        <mxCell id="kqjBh0B1r9YaiWJz7lT--17" style="rounded=0;orthogonalLoop=1;jettySize=auto;html=1;exitX=0.627;exitY=1;exitDx=0;exitDy=0;entryX=0.5;entryY=0;entryDx=0;entryDy=0;endArrow=none;endFill=0;exitPerimeter=0;" parent="1" source="kqjBh0B1r9YaiWJz7lT--3" target="j54vr8sCM3AS_-4BOwvj-34" edge="1">
          <mxGeometry relative="1" as="geometry" />
        </mxCell>
        <mxCell id="kqjBh0B1r9YaiWJz7lT--3" value="&lt;span&gt;city&amp;nbsp;&lt;/span&gt;" style="ellipse;whiteSpace=wrap;html=1;aspect=fixed;fontSize=10;fillColor=#dae8fc;strokeColor=#6c8ebf;fontStyle=0" parent="1" vertex="1">
          <mxGeometry x="-235" y="121" width="50" height="50" as="geometry" />
        </mxCell>
        <mxCell id="kqjBh0B1r9YaiWJz7lT--9" style="rounded=0;orthogonalLoop=1;jettySize=auto;html=1;entryX=0;entryY=0.5;entryDx=0;entryDy=0;endArrow=none;endFill=0;" parent="1" source="kqjBh0B1r9YaiWJz7lT--8" target="j54vr8sCM3AS_-4BOwvj-63" edge="1">
          <mxGeometry relative="1" as="geometry" />
        </mxCell>
        <mxCell id="kqjBh0B1r9YaiWJz7lT--8" value="Doctor&lt;br&gt;Diagnaose" style="ellipse;whiteSpace=wrap;html=1;aspect=fixed;fontSize=10;fillColor=#dae8fc;strokeColor=#6c8ebf;" parent="1" vertex="1">
          <mxGeometry x="-175" y="920" width="60" height="60" as="geometry" />
        </mxCell>
        <mxCell id="kqjBh0B1r9YaiWJz7lT--12" style="edgeStyle=orthogonalEdgeStyle;rounded=0;orthogonalLoop=1;jettySize=auto;html=1;entryX=0.883;entryY=0.001;entryDx=0;entryDy=0;exitX=1;exitY=0.5;exitDx=0;exitDy=0;endArrow=ERzeroToMany;endFill=0;entryPerimeter=0;jumpStyle=arc;jumpSize=20;" parent="1" target="j54vr8sCM3AS_-4BOwvj-94" edge="1">
          <mxGeometry relative="1" as="geometry">
            <mxPoint x="300" y="962" as="targetPoint" />
            <Array as="points">
              <mxPoint x="299" y="795" />
            </Array>
            <mxPoint x="160" y="795" as="sourcePoint" />
          </mxGeometry>
        </mxCell>
        <mxCell id="kqjBh0B1r9YaiWJz7lT--13" style="rounded=0;orthogonalLoop=1;jettySize=auto;html=1;endArrow=none;endFill=0;entryX=0;entryY=0.5;entryDx=0;entryDy=0;" parent="1" source="kqjBh0B1r9YaiWJz7lT--14" target="j54vr8sCM3AS_-4BOwvj-34" edge="1">
          <mxGeometry relative="1" as="geometry">
            <mxPoint x="-275" y="208" as="targetPoint" />
          </mxGeometry>
        </mxCell>
        <mxCell id="kqjBh0B1r9YaiWJz7lT--14" value="Password" style="ellipse;whiteSpace=wrap;html=1;aspect=fixed;fontSize=10;fillColor=#dae8fc;strokeColor=#6c8ebf;" parent="1" vertex="1">
          <mxGeometry x="-270" y="240" width="50" height="50" as="geometry" />
        </mxCell>
        <mxCell id="kqjBh0B1r9YaiWJz7lT--15" style="rounded=0;orthogonalLoop=1;jettySize=auto;html=1;entryX=0;entryY=0.5;entryDx=0;entryDy=0;endArrow=none;endFill=0;" parent="1" source="kqjBh0B1r9YaiWJz7lT--16" target="j54vr8sCM3AS_-4BOwvj-34" edge="1">
          <mxGeometry relative="1" as="geometry">
            <mxPoint x="-275" y="208" as="targetPoint" />
          </mxGeometry>
        </mxCell>
        <mxCell id="kqjBh0B1r9YaiWJz7lT--16" value="UserName" style="ellipse;whiteSpace=wrap;html=1;aspect=fixed;fontSize=10;fillColor=#dae8fc;strokeColor=#6c8ebf;" parent="1" vertex="1">
          <mxGeometry x="-270" y="300" width="50" height="50" as="geometry" />
        </mxCell>
        <mxCell id="kqjBh0B1r9YaiWJz7lT--19" value="&lt;u&gt;Hospital_Id&lt;/u&gt;" style="ellipse;whiteSpace=wrap;html=1;aspect=fixed;fontSize=10;fillColor=#dae8fc;strokeColor=#6c8ebf;" parent="1" vertex="1">
          <mxGeometry x="-80" y="295" width="60" height="60" as="geometry" />
        </mxCell>
        <mxCell id="kqjBh0B1r9YaiWJz7lT--20" value="&lt;span&gt;Address&lt;/span&gt;" style="ellipse;whiteSpace=wrap;html=1;aspect=fixed;fontSize=10;fillColor=#dae8fc;strokeColor=#6c8ebf;fontStyle=0" parent="1" vertex="1">
          <mxGeometry x="-75" y="240" width="50" height="50" as="geometry" />
        </mxCell>
        <mxCell id="kqjBh0B1r9YaiWJz7lT--22" style="rounded=0;orthogonalLoop=1;jettySize=auto;html=1;exitX=1;exitY=0;exitDx=0;exitDy=0;endArrow=none;endFill=0;entryX=0.5;entryY=1;entryDx=0;entryDy=0;" parent="1" source="kqjBh0B1r9YaiWJz7lT--21" target="j54vr8sCM3AS_-4BOwvj-106" edge="1">
          <mxGeometry relative="1" as="geometry" />
        </mxCell>
        <mxCell id="kqjBh0B1r9YaiWJz7lT--21" value="slot&lt;br&gt;time" style="ellipse;whiteSpace=wrap;html=1;aspect=fixed;fontSize=10;fillColor=#dae8fc;strokeColor=#6c8ebf;" parent="1" vertex="1">
          <mxGeometry x="-485" y="1070" width="60" height="60" as="geometry" />
        </mxCell>
        <mxCell id="kqjBh0B1r9YaiWJz7lT--24" style="rounded=0;orthogonalLoop=1;jettySize=auto;html=1;exitX=0.764;exitY=0.067;exitDx=0;exitDy=0;entryX=0.5;entryY=1;entryDx=0;entryDy=0;endArrow=none;endFill=0;exitPerimeter=0;" parent="1" source="kqjBh0B1r9YaiWJz7lT--23" target="j54vr8sCM3AS_-4BOwvj-106" edge="1">
          <mxGeometry relative="1" as="geometry" />
        </mxCell>
        <mxCell id="kqjBh0B1r9YaiWJz7lT--23" value="slot&lt;br&gt;count" style="ellipse;whiteSpace=wrap;html=1;aspect=fixed;fontSize=10;fillColor=#dae8fc;strokeColor=#6c8ebf;" parent="1" vertex="1">
          <mxGeometry x="-560" y="1070" width="60" height="60" as="geometry" />
        </mxCell>
        <mxCell id="OvTTIbJ1KR_ufPb4XMRh-2" style="rounded=0;orthogonalLoop=1;jettySize=auto;html=1;exitX=0.5;exitY=0;exitDx=0;exitDy=0;entryX=0.5;entryY=1;entryDx=0;entryDy=0;endArrow=none;endFill=0;" parent="1" source="OvTTIbJ1KR_ufPb4XMRh-1" target="j54vr8sCM3AS_-4BOwvj-94" edge="1">
          <mxGeometry relative="1" as="geometry" />
        </mxCell>
        <mxCell id="OvTTIbJ1KR_ufPb4XMRh-1" value="slot" style="ellipse;whiteSpace=wrap;html=1;aspect=fixed;fontSize=10;fillColor=#dae8fc;strokeColor=#6c8ebf;" parent="1" vertex="1">
          <mxGeometry x="365" y="1070" width="60" height="60" as="geometry" />
        </mxCell>
        <mxCell id="EyjTof-p0_s5qoq8Op2--1" value="Availability" style="ellipse;whiteSpace=wrap;html=1;aspect=fixed;fontSize=10;fillColor=#dae8fc;strokeColor=#6c8ebf;" parent="1" vertex="1">
          <mxGeometry x="520" y="560" width="50" height="50" as="geometry" />
        </mxCell>
        <mxCell id="-wELDlrGeIdnjE-AUqKl-12" value="Name" style="ellipse;whiteSpace=wrap;html=1;aspect=fixed;fontSize=10;fillColor=#dae8fc;strokeColor=#6c8ebf;" parent="1" vertex="1">
          <mxGeometry x="-175" y="93" width="50" height="50" as="geometry" />
        </mxCell>
        <mxCell id="8S6d5TV-LSRBYTjxFOdh-1" value="user_type" style="ellipse;whiteSpace=wrap;html=1;aspect=fixed;fontSize=10;fillColor=#dae8fc;strokeColor=#6c8ebf;" vertex="1" parent="1">
          <mxGeometry x="230" y="340" width="50" height="50" as="geometry" />
        </mxCell>
        <mxCell id="8S6d5TV-LSRBYTjxFOdh-4" style="rounded=0;orthogonalLoop=1;jettySize=auto;html=1;endArrow=none;endFill=0;entryX=0.5;entryY=1;entryDx=0;entryDy=0;exitX=1;exitY=0;exitDx=0;exitDy=0;" edge="1" parent="1" source="8S6d5TV-LSRBYTjxFOdh-3" target="j54vr8sCM3AS_-4BOwvj-106">
          <mxGeometry relative="1" as="geometry" />
        </mxCell>
        <mxCell id="8S6d5TV-LSRBYTjxFOdh-3" value="slot&lt;br&gt;count" style="ellipse;whiteSpace=wrap;html=1;aspect=fixed;fontSize=10;fillColor=#dae8fc;strokeColor=#6c8ebf;" vertex="1" parent="1">
          <mxGeometry x="-630" y="1070" width="60" height="60" as="geometry" />
        </mxCell>
      </root>
    </mxGraphModel>
  </diagram>
</mxfile>
